<?xml version="1.0" encoding="utf-8"?>
<!-- Generator: Adobe Illustrator 15.0.2, SVG Export Plug-In . SVG Version: 6.00 Build 0)  -->
<!DOCTYPE svg PUBLIC "-//W3C//DTD SVG 1.1//EN" "http://www.w3.org/Graphics/SVG/1.1/DTD/svg11.dtd">
<svg version="1.1" xmlns="http://www.w3.org/2000/svg" xmlns:xlink="http://www.w3.org/1999/xlink" x="0px" y="0px" width="600px"
	 height="200px" viewBox="0 0 600 200" enable-background="new 0 0 600 200" xml:space="preserve">
<g id="Contact_Sheet">
	<g id="SeatShare_Inverted">
		<g id="share">
			<path id="e" fill="#4963AE" d="M514.281,116.445c0.3,3.502,1.148,6.802,2.55,9.9c1.399,3.101,3.248,5.775,5.55,8.025
				c2.3,2.25,4.95,4.026,7.95,5.324c3,1.301,6.248,1.95,9.75,1.95c5.299,0,9.874-1.224,13.725-3.675
				c3.849-2.449,6.773-5.273,8.775-8.475l7.65,6.3c-4.2,5.302-8.827,9.101-13.875,11.399c-5.051,2.3-10.477,3.45-16.275,3.45
				c-5.201,0-10.026-0.926-14.475-2.774c-4.451-1.85-8.276-4.426-11.476-7.726c-3.201-3.3-5.726-7.2-7.575-11.7
				c-1.852-4.5-2.774-9.398-2.774-14.699c0-5.3,0.899-10.2,2.7-14.7c1.8-4.5,4.298-8.4,7.5-11.7c3.199-3.3,6.949-5.873,11.25-7.725
				c4.298-1.85,8.948-2.775,13.949-2.775c5.3,0,10.051,0.951,14.25,2.85c4.2,1.901,7.726,4.426,10.575,7.575
				c2.851,3.15,5.025,6.851,6.525,11.101c1.5,4.251,2.25,8.774,2.25,13.574v4.5H514.281z M561.981,108.346
				c0-6.698-2.002-12.124-6-16.275c-4.001-4.148-9.601-6.225-16.801-6.225c-3.201,0-6.3,0.626-9.3,1.875
				c-3,1.252-5.625,2.925-7.875,5.025c-2.25,2.1-4.05,4.5-5.399,7.199c-1.351,2.7-2.025,5.501-2.025,8.4H561.981z"/>
			<path id="r" fill="#4963AE" d="M474.083,100.546c0-3.099-0.074-6.249-0.225-9.45c-0.15-3.199-0.276-7.35-0.375-12.45h9.75v13.05
				h0.3c0.698-1.898,1.699-3.724,3-5.475c1.299-1.748,2.874-3.323,4.726-4.725c1.849-1.399,3.998-2.524,6.449-3.375
				c2.449-0.849,5.225-1.275,8.325-1.275c2.799,0,5.25,0.3,7.351,0.9l-1.95,9.75c-1.301-0.5-3.202-0.75-5.7-0.75
				c-3.802,0-7.05,0.727-9.75,2.175c-2.7,1.45-4.95,3.3-6.75,5.55s-3.127,4.676-3.975,7.275c-0.852,2.602-1.275,5.1-1.275,7.5v39.6
				h-9.9V100.546z"/>
			<path id="a_1_" fill="#4963AE" d="M456.934,105.796v-1.8c0-12.099-6-18.15-18-18.15c-8.2,0-15.352,2.752-21.45,8.25l-6-7.05
				c6.601-6.8,16.5-10.2,29.7-10.2c3.398,0,6.675,0.502,9.825,1.5c3.15,1.001,5.873,2.526,8.175,4.575
				c2.3,2.051,4.148,4.626,5.55,7.725c1.399,3.101,2.101,6.802,2.101,11.101v31.35c0,2.7,0.124,5.526,0.375,8.475
				c0.248,2.951,0.524,5.377,0.825,7.275h-9.601c-0.3-1.699-0.524-3.549-0.675-5.55c-0.15-1.999-0.225-3.949-0.225-5.851h-0.301
				c-2.901,4.702-6.325,8.077-10.274,10.125c-3.952,2.049-8.775,3.075-14.476,3.075c-3.101,0-6.101-0.427-9-1.274
				c-2.901-0.849-5.475-2.149-7.725-3.9c-2.25-1.748-4.05-3.9-5.4-6.45c-1.35-2.55-2.024-5.524-2.024-8.925
				c0-5.7,1.474-10.174,4.425-13.425c2.948-3.249,6.649-5.675,11.1-7.275c4.449-1.599,9.199-2.599,14.25-3
				c5.049-0.398,9.676-0.6,13.875-0.6H456.934z M451.834,113.896c-2.501,0-5.625,0.127-9.375,0.375
				c-3.75,0.251-7.351,0.851-10.8,1.8c-3.45,0.952-6.401,2.426-8.851,4.426c-2.451,2.001-3.675,4.75-3.675,8.25
				c0,2.301,0.474,4.274,1.425,5.925c0.949,1.649,2.225,3,3.825,4.05c1.599,1.05,3.375,1.8,5.325,2.25s3.923,0.675,5.925,0.675
				c3.6,0,6.725-0.6,9.375-1.8c2.648-1.2,4.875-2.824,6.675-4.875c1.8-2.049,3.124-4.448,3.976-7.2
				c0.848-2.749,1.274-5.674,1.274-8.774v-5.101H451.834z"/>
			<path id="h" fill="#4963AE" d="M345.283,35.445h9.9v54.45h0.3c1.1-1.898,2.498-3.649,4.2-5.25c1.699-1.599,3.6-2.974,5.7-4.125
				c2.1-1.148,4.324-2.048,6.675-2.7c2.349-0.648,4.673-0.975,6.975-0.975c9,0,15.649,2.377,19.95,7.125
				c4.299,4.751,6.45,11.526,6.45,20.325v44.55h-9.9v-38.85c0-7.801-1.35-13.774-4.05-17.926c-2.7-4.148-7.701-6.225-15-6.225
				c-0.502,0-1.9,0.201-4.2,0.6c-2.302,0.401-4.725,1.5-7.274,3.301c-2.551,1.8-4.826,4.5-6.825,8.1c-2.002,3.6-3,8.602-3,15v36
				h-9.9V35.445z"/>
			<path id="s_1_" fill="#4963AE" d="M331.334,95.296c-1.5-2.899-3.501-5.198-6-6.9c-2.5-1.699-5.549-2.55-9.149-2.55
				c-1.702,0-3.427,0.201-5.175,0.6c-1.751,0.401-3.326,1.027-4.725,1.875c-1.402,0.852-2.527,1.927-3.375,3.226
				c-0.852,1.301-1.275,2.901-1.275,4.8c0,3.3,1.148,5.7,3.449,7.2c2.3,1.5,5.75,2.801,10.351,3.899l10.05,2.4
				c4.898,1.102,8.975,3.326,12.225,6.675c3.248,3.352,4.875,7.526,4.875,12.525c0,3.802-0.775,7.075-2.324,9.825
				c-1.553,2.751-3.6,5.001-6.15,6.75c-2.551,1.75-5.475,3.025-8.775,3.824c-3.299,0.8-6.65,1.2-10.049,1.2
				c-5.4,0-10.426-1.026-15.076-3.075c-4.65-2.048-8.625-5.573-11.925-10.574l8.55-5.851c1.999,3.202,4.523,5.752,7.576,7.65
				c3.049,1.9,6.674,2.85,10.875,2.85c1.998,0,3.998-0.225,6-0.675c1.998-0.45,3.773-1.148,5.324-2.1
				c1.549-0.949,2.799-2.176,3.75-3.676c0.949-1.5,1.426-3.248,1.426-5.25c0-3.499-1.301-6.023-3.9-7.574
				c-2.602-1.55-5.752-2.775-9.45-3.676l-9.601-2.25c-1.199-0.3-2.826-0.799-4.875-1.5c-2.051-0.698-4.049-1.748-6-3.149
				c-1.95-1.399-3.626-3.226-5.025-5.476c-1.402-2.25-2.1-5.024-2.1-8.324c0-3.601,0.724-6.75,2.175-9.45
				c1.449-2.7,3.398-4.898,5.85-6.601c2.449-1.699,5.225-2.974,8.325-3.824c3.099-0.849,6.3-1.275,9.601-1.275
				c4.898,0,9.449,0.951,13.649,2.85c4.2,1.901,7.448,5.152,9.749,9.75L331.334,95.296z"/>
		</g>
		<g id="graph">
			<path id="graph-3" fill-rule="evenodd" clip-rule="evenodd" fill="#4963AE" d="M189.2,107.056c1.733,3.433,0.262,9.63,0,13.44
				c-14.278-2.682-27.94-5.98-42.24-8.64C160.62,109.836,175.205,108.741,189.2,107.056z"/>
			<path id="graph-2" fill-rule="evenodd" clip-rule="evenodd" fill="#4963AE" d="M189.44,103.936
				c-15.991,1.529-31.639,3.401-47.52,5.04c-0.267-0.969,0.929-1.451,1.44-1.92c10.35-9.5,22.193-20.829,33.12-29.76
				c0.195-0.159,0.312-0.722,0.72-0.72C183.348,83.628,187.904,92.272,189.44,103.936z"/>
			<path id="graph-1" fill-rule="evenodd" clip-rule="evenodd" fill="#4963AE" d="M134.72,110.896
				c7.25,16.67,14.943,32.897,22.08,49.68c-16.067,7.274-35.533,3.583-47.28-3.12c-11.909-6.795-21.46-18.992-24.96-33.36
				c-4.294-17.633,1.109-34.554,9.84-45.84c8.481-10.963,21.906-19.486,38.64-20.64c16.748-1.155,29.171,5.336,38.16,12.96
				c0.874,0.742,3.817,2.826,3.84,3.36c0.033,0.783-3.926,3.777-5.04,4.8C158.202,89.566,146.119,100.059,134.72,110.896z"/>
		</g>
		<g id="at">
			<path id="t" fill="#4963AE" d="M245.814,91.246v-14.4h12.6v-20.85h17.7v20.85h18v14.4h-18v33.449c0,3.202,0.574,5.851,1.725,7.95
				c1.148,2.101,3.724,3.15,7.725,3.15c1.2,0,2.498-0.124,3.9-0.375c1.399-0.249,2.648-0.624,3.75-1.125l0.6,14.1
				c-1.601,0.601-3.502,1.073-5.7,1.425c-2.201,0.35-4.301,0.525-6.3,0.525c-4.8,0-8.7-0.675-11.7-2.025
				c-3-1.35-5.376-3.199-7.125-5.55c-1.751-2.349-2.951-5.048-3.6-8.1c-0.651-3.05-0.975-6.323-0.975-9.825v-33.6H245.814z"/>
			<path id="a" fill="#4963AE" d="M232.616,139.695h-0.45c-1.8,3.202-4.701,5.827-8.7,7.875c-4.001,2.049-8.55,3.075-13.65,3.075
				c-2.902,0-5.925-0.375-9.075-1.125s-6.052-1.999-8.7-3.75c-2.65-1.748-4.852-4.05-6.6-6.899
				c-1.751-2.851-2.625-6.375-2.625-10.575c0-5.4,1.523-9.698,4.575-12.9c3.049-3.199,6.975-5.648,11.775-7.35
				c4.8-1.699,10.125-2.824,15.975-3.375c5.85-0.549,11.574-0.825,17.175-0.825v-1.8c0-4.5-1.627-7.823-4.875-9.976
				c-3.251-2.148-7.125-3.225-11.625-3.225c-3.802,0-7.451,0.802-10.95,2.4c-3.501,1.601-6.401,3.551-8.7,5.85l-9.3-10.95
				c4.099-3.799,8.824-6.649,14.175-8.55c5.349-1.898,10.774-2.85,16.275-2.85c6.398,0,11.674,0.899,15.825,2.699
				c4.148,1.801,7.425,4.151,9.825,7.051c2.4,2.901,4.073,6.149,5.025,9.75c0.949,3.6,1.425,7.199,1.425,10.8v43.8h-16.8V139.695z
				 M232.316,115.996h-4.05c-2.901,0-5.951,0.126-9.15,0.375c-3.202,0.25-6.15,0.801-8.85,1.649c-2.7,0.851-4.95,2.051-6.75,3.601
				c-1.8,1.551-2.7,3.675-2.7,6.375c0,1.701,0.375,3.126,1.125,4.274c0.75,1.151,1.725,2.077,2.925,2.775c1.2,0.7,2.55,1.2,4.05,1.5
				s3,0.45,4.5,0.45c6.199,0,10.898-1.65,14.1-4.95c3.199-3.3,4.8-7.8,4.8-13.5V115.996z"/>
		</g>
		<path id="s" fill="#4963AE" d="M75.219,96.046c-1.601-2.101-3.802-3.924-6.6-5.476c-2.801-1.549-5.85-2.324-9.15-2.324
			c-2.901,0-5.55,0.6-7.95,1.8c-2.4,1.2-3.6,3.201-3.6,6c0,2.801,1.324,4.776,3.975,5.925c2.648,1.15,6.525,2.325,11.625,3.525
			c2.7,0.6,5.424,1.401,8.175,2.399c2.749,1.001,5.25,2.325,7.5,3.976c2.25,1.649,4.073,3.7,5.475,6.149
			c1.399,2.452,2.1,5.426,2.1,8.925c0,4.402-0.825,8.126-2.475,11.176c-1.65,3.051-3.851,5.526-6.6,7.425
			c-2.751,1.9-5.951,3.276-9.6,4.125c-3.651,0.849-7.425,1.274-11.325,1.274c-5.602,0-11.051-1.026-16.35-3.074
			c-5.302-2.049-9.701-4.974-13.2-8.775l11.85-11.1c1.999,2.602,4.598,4.75,7.8,6.449c3.199,1.702,6.75,2.551,10.65,2.551
			c1.299,0,2.625-0.15,3.975-0.45s2.599-0.773,3.75-1.425c1.148-0.649,2.074-1.523,2.775-2.625c0.699-1.1,1.05-2.449,1.05-4.051
			c0-3-1.376-5.148-4.125-6.449c-2.751-1.299-6.876-2.6-12.375-3.9c-2.7-0.6-5.325-1.373-7.875-2.325
			c-2.55-0.949-4.826-2.198-6.825-3.75c-2.001-1.549-3.6-3.474-4.8-5.774c-1.2-2.3-1.8-5.149-1.8-8.551
			c0-3.998,0.825-7.448,2.475-10.35c1.65-2.899,3.825-5.273,6.525-7.125c2.7-1.85,5.75-3.225,9.15-4.125
			c3.398-0.9,6.9-1.35,10.5-1.35c5.198,0,10.275,0.899,15.225,2.699c4.95,1.801,8.874,4.552,11.775,8.25L75.219,96.046z"/>
	</g>
</g>
</svg>
