<?xml version="1.0" encoding="UTF-8" standalone="no"?>
<svg
   xmlns:dc="http://purl.org/dc/elements/1.1/"
   xmlns:cc="http://creativecommons.org/ns#"
   xmlns:rdf="http://www.w3.org/1999/02/22-rdf-syntax-ns#"
   xmlns:svg="http://www.w3.org/2000/svg"
   xmlns="http://www.w3.org/2000/svg"
   viewBox="0 0 563.15601 189.02933"
   height="189.02933"
   width="563.15601"
   xml:space="preserve"
   id="svg2"
   version="1.1"><metadata
     id="metadata8"><rdf:RDF><cc:Work
         rdf:about=""><dc:format>image/svg+xml</dc:format><dc:type
           rdf:resource="http://purl.org/dc/dcmitype/StillImage" /></cc:Work></rdf:RDF></metadata><defs
     id="defs6"><clipPath
       id="clipPath18"
       clipPathUnits="userSpaceOnUse"><path
         id="path16"
         d="M 0,141.772 H 422.367 V 0 H 0 Z" /></clipPath></defs><g
     transform="matrix(1.3333333,0,0,-1.3333333,0,189.02933)"
     id="g10"><g
       id="g12"><g
         clip-path="url(#clipPath18)"
         id="g14"><g
           transform="translate(374.2539,45.9521)"
           id="g20"><path
             id="path22"
             style="fill:#717171;fill-opacity:1;fill-rule:nonzero;stroke:none"
             d="m 0,0 c -12.159,-19.345 -33.691,-32.202 -58.227,-32.202 -24.534,0 -46.071,12.86 -58.226,32.204 h -0.004 l -7.647,-4.794 -7.025,-5.234 2.826,-4.504 7.927,3.785 1.244,0.78 c 14.006,-18.32 36.062,-30.166 60.905,-30.166 27.367,0 51.385,14.342 64.946,35.918 z" /></g><g
           transform="translate(23.209,53.4863)"
           id="g24"><path
             id="path26"
             style="fill:#3c70b3;fill-opacity:1;fill-rule:nonzero;stroke:none"
             d="m 0,0 c -4.916,0 -9.73,0.603 -13.644,1.606 l 0.5,8.828 c 3.915,-1.407 9.233,-2.509 13.948,-2.509 8.127,0 14.848,3.311 14.848,11.64 0,15.248 -30.5,9.23 -30.5,30.799 0,11.138 8.83,19.165 24.079,19.165 4.115,0 8.225,-0.402 12.24,-1.206 l -0.504,-8.225 c -3.91,1.102 -8.225,1.804 -12.238,1.804 -9.232,0 -14.044,-4.214 -14.044,-10.534 0,-14.646 30.6,-9.331 30.6,-30.499 C 25.285,8.73 15.753,0 0,0" /></g><g
           transform="translate(79.8008,98.5347)"
           id="g28"><path
             id="path30"
             style="fill:#3c70b3;fill-opacity:1;fill-rule:nonzero;stroke:none"
             d="M 0,0 C -6.521,0 -11.137,-4.916 -12.139,-12.241 H 11.136 C 11.335,-4.916 7.023,0 0,0 m 20.066,-18.662 h -32.608 c -0.403,-13.343 5.117,-19.061 15.751,-19.061 5.118,0 10.538,1.202 14.55,3.108 l 0.8,-7.322 c -4.812,-2.009 -10.632,-3.111 -16.854,-3.111 -15.352,0 -23.578,8.027 -23.578,25.583 0,14.949 8.127,26.087 22.274,26.087 14.047,0 19.965,-9.532 19.965,-20.97 0,-1.202 -0.101,-2.607 -0.3,-4.314" /></g><g
           transform="translate(139.502,77.3662)"
           id="g32"><path
             id="path34"
             style="fill:#3c70b3;fill-opacity:1;fill-rule:nonzero;stroke:none"
             d="m 0,0 c -17.358,0 -21.168,-5.319 -21.168,-9.835 0,-4.214 3.009,-6.922 7.624,-6.922 C -5.42,-16.757 0,-8.729 0,-0.904 Z m 0.503,-22.976 c 0,3.51 0,7.123 0.501,9.932 H 0.803 c -2.409,-6.121 -8.73,-10.836 -16.958,-10.836 -8.226,0 -13.844,4.414 -13.844,12.342 0,10.934 11.138,17.858 29.999,17.858 v 3.71 c 0,6.925 -2.708,10.637 -10.934,10.637 -4.717,0 -10.735,-1.505 -15.052,-4.116 l -0.904,7.729 c 4.818,2.006 10.839,3.609 17.458,3.609 14.348,0 18.46,-6.721 18.46,-16.654 v -27.19 c 2.409,-0.401 5.82,-0.802 8.73,-1.004 v -5.314 C 12.741,-22.876 5.82,-23.277 0.503,-22.976" /></g><g
           transform="translate(183.0288,53.5879)"
           id="g36"><path
             id="path38"
             style="fill:#3c70b3;fill-opacity:1;fill-rule:nonzero;stroke:none"
             d="m 0,0 c -10.235,0 -13.344,4.212 -13.344,14.947 v 28.696 h -10.234 v 7.022 h 10.234 v 16.152 l 9.029,2.51 V 50.665 H 9.629 V 43.643 H -4.315 V 18.157 c 0,-8.225 1.505,-10.433 7.124,-10.433 2.307,0 4.817,0.401 6.82,0.905 V 1.001 C 6.82,0.398 3.211,0 0,0" /></g><g
           transform="translate(254.9688,111.4775)"
           id="g40"><path
             id="path42"
             style="fill:#717171;fill-opacity:1;fill-rule:nonzero;stroke:none"
             d="m 0,0 c -5.616,2.305 -11.84,3.611 -18.061,3.611 -13.942,0 -25.885,-9.031 -25.885,-27.088 0,-16.857 9.836,-26.487 25.083,-26.487 4.513,0 8.33,0.703 11.938,1.804 v 25.584 h 9.13 v -31.503 c -6.721,-2.508 -14.949,-3.912 -22.372,-3.912 -20.467,0 -33.61,12.441 -33.61,33.408 0,20.77 13.845,36.121 36.618,36.121 6.423,0 12.543,-1.005 18.562,-2.91 z" /></g><g
           transform="translate(289.5879,98.5347)"
           id="g44"><path
             id="path46"
             style="fill:#717171;fill-opacity:1;fill-rule:nonzero;stroke:none"
             d="M 0,0 C -6.524,0 -11.136,-4.916 -12.142,-12.241 H 11.137 C 11.338,-4.916 7.02,0 0,0 M 20.064,-18.662 H -12.54 c -0.401,-13.343 5.115,-19.061 15.75,-19.061 5.117,0 10.534,1.202 14.547,3.108 l 0.806,-7.322 c -4.819,-2.009 -10.638,-3.111 -16.857,-3.111 -15.35,0 -23.578,8.027 -23.578,25.583 0,14.949 8.128,26.087 22.273,26.087 14.046,0 19.964,-9.532 19.964,-20.97 0,-1.202 -0.098,-2.607 -0.301,-4.314" /></g><g
           transform="translate(340.3613,98.5347)"
           id="g48"><path
             id="path50"
             style="fill:#717171;fill-opacity:1;fill-rule:nonzero;stroke:none"
             d="M 0,0 C -6.521,0 -11.137,-4.916 -12.141,-12.241 H 11.136 C 11.334,-4.916 7.022,0 0,0 m 20.066,-18.662 h -32.608 c -0.404,-13.343 5.115,-19.061 15.751,-19.061 5.119,0 10.536,1.202 14.548,3.108 l 0.802,-7.322 c -4.814,-2.009 -10.631,-3.111 -16.854,-3.111 -15.354,0 -23.578,8.027 -23.578,25.583 0,14.949 8.129,26.087 22.272,26.087 14.048,0 19.965,-9.532 19.965,-20.97 0,-1.202 -0.098,-2.607 -0.298,-4.314" /></g><g
           transform="translate(402.3701,54.3906)"
           id="g52"><path
             id="path54"
             style="fill:#717171;fill-opacity:1;fill-rule:nonzero;stroke:none"
             d="M 0,0 -18.461,25.684 V 0 h -9.028 v 66.216 c -2.408,0.4 -5.82,0.803 -8.731,1.004 v 5.316 c 5.019,0.601 11.942,1.004 17.759,0.702 V 27.992 L -0.9,49.862 H 10.134 L -9.028,27.088 11.636,0 Z" /></g></g></g></g></svg>